<?xml version="1.0" standalone="no"?>
<!DOCTYPE svg PUBLIC "-//W3C//DTD SVG 1.0//EN" "http://www.w3.org/TR/2001/REC-SVG-20010904/DTD/svg10.dtd">
<svg xmlns="http://www.w3.org/2000/svg" xmlns:xlink="http://www.w3.org/1999/xlink" id="body_1" width="708" height="529">

<g transform="matrix(3.0657783 0 0 3.0657783 88.810196 -0)">
	<g>
		<g>
            <path d="M107 138.9L106.88 138.9L57.339996 138.65C 44.544903 138.5674 34.230118 128.14525 34.28 115.34999L34.28 115.34999L34.53 65.80999C 34.61232 53.069557 44.949333 42.777184 57.69 42.75L57.69 42.75L57.809998 42.75C 68.42592 42.760414 77.66561 50.01103 80.2 60.32L80.2 60.32L99.26 41.46C 108.37894 32.5772 122.95505 32.710594 131.90988 41.75879C 140.8647 50.806988 140.84691 65.383705 131.87 74.41L131.87 74.41L112.81 93.27C 124.092735 96.21129 131.43712 107.072685 129.96437 118.63912C 128.49164 130.20555 118.6598 138.87993 107 138.9zM57.69 47.46C 47.532734 47.47077 39.28592 55.672947 39.22 65.83L39.22 65.83L39 115.37C 38.961197 125.56787 47.182262 133.87392 57.379997 133.94L57.379997 133.94L106.92999 134.2C 116.963196 134.18428 125.150986 126.165825 125.376366 116.13515C 125.601746 106.10447 117.782364 97.72635 107.759995 97.259995C 106.832985 97.21626 106.01854 96.63107 105.68134 95.766464C 105.34415 94.901855 105.54736 93.919785 106.2 93.259995L106.2 93.259995L128.59999 71.09C 133.2909 66.44554 135.14767 59.65133 133.4709 53.266663C 131.79414 46.882 126.83857 41.876873 120.4709 40.136665C 114.10324 38.396454 107.290886 40.18554 102.59999 44.829994L102.59999 44.829994L80.17 67C 79.50169 67.6473 78.51544 67.841545 77.651596 67.49601C 76.78774 67.15047 76.20753 66.329636 76.17 65.4C 75.92056 55.42581 67.7673 47.467728 57.79 47.46z" stroke="none" fill="#FF7ECC" fill-rule="nonzero" />
            <path d="M107 149.72L106.82 149.72L57.27 149.46C 38.170097 149.33885 22.772423 133.78014 22.850002 114.68001L22.850002 114.68001L23.100002 65.14001C 23.226284 46.112705 38.672295 30.747051 57.7 30.720009L57.7 30.720009L57.88 30.720009C 67.20972 30.74778 76.13212 34.54539 82.62 41.25L82.62 41.25L91.23 32.739998C 104.83661 19.455109 126.61423 19.641006 139.99207 33.15624C 153.36989 46.67147 153.33324 68.44986 139.91 81.92L139.91 81.92L131.31 90.44C 141.28757 100.312935 144.32303 115.23005 138.99722 128.21706C 133.6714 141.20406 121.03659 149.69498 107 149.72zM27.559998 114.72C 27.493496 131.22275 40.79744 144.66537 57.299995 144.77L57.299995 144.77L106.84 145.02L107 145.02C 119.53766 145.00679 130.73834 137.18051 135.06224 125.41203C 139.38614 113.643555 135.91673 100.42731 126.37 92.3C 125.86979 91.86852 125.56954 91.24995 125.54 90.590004C 125.51857 89.93155 125.77219 89.293884 126.24 88.83L126.24 88.83L136.6 78.57C 148.3333 66.95545 148.42955 48.028282 136.815 36.295C 125.200455 24.561707 106.27329 24.465454 94.54 36.08L94.54 36.08L84.18 46.34C 83.70845 46.800644 83.066345 47.04407 82.40793 47.011814C 81.74951 46.979557 81.13427 46.67453 80.71 46.170002C 75.05806 39.37928 66.68504 35.445503 57.85 35.43L57.85 35.43L57.69 35.43C 41.249638 35.451645 27.904352 48.729958 27.8 65.17z" stroke="none" fill="#45B77E" fill-rule="nonzero" />
            <path d="M107 161.13L106.76 161.13L57.22 160.88C 31.813675 160.7203 11.330257 140.02664 11.43 114.62001L11.43 114.62001L11.68 65.08001C 11.844688 39.77913 32.37862 19.343403 57.68 19.30001L57.68 19.30001L57.920002 19.30001C 66.333534 19.307236 74.58352 21.62484 81.77 26L81.77 26L83.189995 24.59C 101.25247 6.709774 130.38979 6.8575172 148.27 24.919998C 166.15022 42.982475 166.00249 72.11978 147.94 90L147.94 90L146.52 91.41C 154.99922 105.64653 155.18938 123.33759 147.01813 137.75308C 138.84686 152.16858 123.57029 161.09251 107 161.13zM57.69 24C 34.968155 24.02702 16.522816 42.378593 16.379997 65.1L16.379997 65.1L16.129997 114.64C 16.035816 137.44597 34.42424 156.02231 57.229996 156.16L57.229996 156.16L106.77 156.42L107 156.42C 122.1824 156.38226 136.12682 148.03915 143.338 134.67856C 150.54916 121.317955 149.87073 105.08238 141.57 92.369995C 140.92917 91.42789 141.06007 90.161156 141.88 89.369995L141.88 89.369995L144.64 86.63999C 155.80634 76.40376 160.4763 60.87801 156.80983 46.180244C 153.14334 31.482483 141.7283 19.969265 127.06247 16.177074C 112.39664 12.384884 96.831474 16.92173 86.5 28L86.5 28L83.74 30.7C 82.93744 31.502602 81.67722 31.62022 80.74 30.980001C 73.97446 26.44096 66.01706 24.005375 57.869995 23.980001z" stroke="none" fill="#FFCB00" fill-rule="nonzero" />
            <path d="M107 172.55L106.7 172.55L57.159996 172.3C 25.444939 172.10724 -0.12743378 146.27538 0 114.56L0 114.56L2.35 114.56L0 114.56L0.25 65C 0.46958542 33.420074 26.109339 7.9231644 57.69 7.88L57.69 7.88L58 7.88C 65.52401 7.899914 72.971146 9.394779 79.92 12.280001C 102.922615 -5.718025 135.73657 -3.7315102 156.4 16.91C 176.97957 37.71971 178.6372 70.66998 160.25 93.44C 167.39973 111.16099 165.29051 131.2748 154.62012 147.12709C 143.94974 162.97937 126.1089 172.50404 107 172.55zM57.7 12.550003C 28.695133 12.604469 5.164749 36.04555 5 65.05L5 65.05L4.75 114.590004C 4.628128 143.70084 28.09943 167.41374 57.21 167.59L57.21 167.59L106.75 167.84L107 167.84C 124.77286 167.79193 141.33144 158.81389 151.06895 143.94586C 160.80646 129.07784 162.4188 110.31106 155.36 94C 155.0043 93.17321 155.14764 92.216286 155.73 91.53C 173.59354 70.69078 172.48294 39.632786 153.17656 20.122719C 133.8702 0.612648 102.825554 -0.8238373 81.8 16.82C 81.10665 17.390034 80.15157 17.521502 79.33 17.16C 72.61729 14.162277 65.35163 12.602188 58 12.58z" stroke="none" fill="#FF7A00" fill-rule="nonzero" />
            <path d="M47.38 115.16L47.64 65.62C 47.54402 61.952454 49.452217 58.523476 52.61953 56.671925C 55.786842 54.820374 59.710964 54.839886 62.859703 56.722847C 66.008446 58.605804 67.88245 62.05359 67.75 65.72L67.75 65.72L67.62 91L108.490005 50.55C 111.015526 47.889423 114.78906 46.814472 118.33751 47.744778C 121.885956 48.675087 124.64671 51.463154 125.54204 55.020588C 126.43737 58.578022 125.32532 62.34079 122.64001 64.84L122.64001 64.84L81.77 105.28L107.03 105.409996C 110.69754 105.31402 114.12652 107.22221 115.97807 110.38953C 117.82962 113.55684 117.810104 117.48096 115.92715 120.6297C 114.04419 123.77844 110.596405 125.65244 106.93 125.52L106.93 125.52L57.39 125.27C 54.721916 125.25676 52.168365 124.184166 50.291122 122.28817C 48.413876 120.392166 47.366714 117.82809 47.38 115.16z" stroke="none" fill="#FF7A00" fill-rule="nonzero" />
		</g>
	</g>
</g>
</svg>